<svg width="24" height="24"  viewBox="0 0 50 50" xmlns="http://www.w3.org/2000/svg">

 <g>
  <title>Layer 1</title>
  <path stroke="#444" id="svg_2" stroke-width="4" fill="none" d="m24.99068,47.87544c12.57825,0 22.77537,-10.23565 22.77537,-22.86103c0,-12.62559 -10.19711,-22.86103 -22.77537,-22.86103c-12.57805,0 -22.77537,10.23545 -22.77537,22.86103c0,12.62538 10.19732,22.86103 22.77537,22.86103z"/>
  <path stroke="null" stroke-width="0" id="svg_1" fill="#444" d="m22.69973,34.35623l5.46184,-0.01169l0,-4.41063c0,-1.19636 0.53658,-2.3267 1.97231,-3.30563c1.43562,-0.97847 5.44342,-2.96407 5.44342,-8.18458c0,-5.22073 -4.20871,-8.80912 -7.74654,-9.57039c-3.53728,-0.76128 -7.36996,-0.26041 -10.0898,2.83673c-2.43556,2.77335 -2.94876,4.96709 -2.94876,9.80708l5.45742,0l0,-1.12495c0,-2.57897 0.28703,-5.30143 3.83192,-6.04597c1.93482,-0.40643 3.74855,0.22442 4.82436,1.31808c1.23063,1.25068 1.24055,4.06885 -0.7204,5.47209l-3.07613,2.17528c-1.79432,1.19636 -2.40964,2.52831 -2.40964,4.48594l0,6.55864zm-0.03584,8.071l0,-5.84597l5.53693,0l0,5.84597l-5.53693,0z"/>
 </g>
</svg>